<mxfile host="Electron" agent="Mozilla/5.0 (Windows NT 10.0; Win64; x64) AppleWebKit/537.36 (KHTML, like Gecko) draw.io/26.0.16 Chrome/132.0.6834.196 Electron/34.2.0 Safari/537.36" version="26.0.16">
  <diagram name="Página-1" id="rzJaPzHqqnuVf9jLmMlW">
    <mxGraphModel dx="2234" dy="1636" grid="0" gridSize="10" guides="1" tooltips="1" connect="1" arrows="1" fold="1" page="0" pageScale="1" pageWidth="827" pageHeight="1169" math="0" shadow="0">
      <root>
        <mxCell id="0" />
        <mxCell id="1" parent="0" />
        <mxCell id="EAbFVQhFKvrLfhzvPWd2-1" value="&lt;font style=&quot;font-size: 15px;&quot;&gt;&lt;font style=&quot;color: rgb(76, 0, 153);&quot;&gt;MaterialApp (&lt;/font&gt;&lt;br&gt;&lt;font color=&quot;#009900&quot;&gt; ├── home:&amp;nbsp;&lt;/font&gt;&lt;span style=&quot;color: rgb(186, 0, 0);&quot;&gt;Inicio da rota&lt;/span&gt;&lt;br&gt;&lt;font color=&quot;#009900&quot;&gt; ├── routes: &lt;/font&gt;&lt;font color=&quot;rgba(0, 0, 0, 0)&quot;&gt;Rotas&lt;/font&gt;&lt;br&gt;&lt;font color=&quot;#009900&quot;&gt; ├── theme:&amp;nbsp;&lt;/font&gt;&lt;span style=&quot;color: rgb(186, 0, 0);&quot;&gt;Escolher tema padrao&lt;/span&gt;&lt;br&gt;&lt;font color=&quot;#009900&quot;&gt; ├── title:&amp;nbsp;&lt;/font&gt;&lt;span style=&quot;color: rgb(186, 0, 0);&quot;&gt;Titulo&lt;/span&gt;&lt;br&gt;&lt;font color=&quot;#009900&quot;&gt; ├── debugShowCheckedModeBanner: &lt;/font&gt;&lt;font color=&quot;#ba0000&quot;&gt;Banner debug&lt;/font&gt;&lt;br&gt;&lt;font color=&quot;#009900&quot;&gt; ├── initialRoute&lt;/font&gt;&lt;br&gt;&lt;font color=&quot;#009900&quot;&gt; ├── onGenerateRoute&lt;/font&gt;&lt;br&gt;&lt;font color=&quot;#009900&quot;&gt; ├── onUnknownRoute&lt;/font&gt;&lt;br&gt;&lt;font color=&quot;#009900&quot;&gt; ├── navigatorKey&lt;/font&gt;&lt;br&gt;&lt;font color=&quot;#009900&quot;&gt; ├── builder&lt;/font&gt;&lt;br&gt;&lt;font color=&quot;#009900&quot;&gt; ├── locale&lt;/font&gt;&lt;br&gt;&lt;font color=&quot;#009900&quot;&gt; ├── supportedLocales&lt;/font&gt;&lt;br&gt;&lt;font color=&quot;#009900&quot;&gt; ├── localeResolutionCallback&lt;/font&gt;&lt;br&gt;&lt;font color=&quot;#009900&quot;&gt; ├── localizationsDelegates&lt;/font&gt;&lt;br&gt;&lt;font color=&quot;#009900&quot;&gt; ├── darkTheme&lt;/font&gt;&lt;br&gt;&lt;font color=&quot;#009900&quot;&gt; ├── themeMode&lt;/font&gt;&lt;br&gt;&lt;font color=&quot;#009900&quot;&gt; ├── scaffoldMessengerKey&lt;/font&gt;&lt;br&gt;&lt;font color=&quot;#009900&quot;&gt; ├── highContrastTheme&lt;/font&gt;&lt;br&gt;&lt;font color=&quot;#009900&quot;&gt; └── useInheritedMediaQuery&lt;/font&gt;&lt;/font&gt;" style="text;whiteSpace=wrap;html=1;movable=1;resizable=1;rotatable=1;deletable=1;editable=1;locked=0;connectable=1;strokeColor=none;strokeWidth=3;dashed=1;dashPattern=12 12;" parent="1" vertex="1">
          <mxGeometry x="-171" y="11" width="374" height="386" as="geometry" />
        </mxCell>
        <UserObject label="&lt;div style=&quot;color: rgb(204, 204, 204); background-color: rgb(31, 31, 31); font-family: Consolas, &amp;quot;Courier New&amp;quot;, monospace; font-weight: normal; line-height: 24px; white-space: pre;&quot;&gt;&lt;div style=&quot;&quot;&gt;&lt;font style=&quot;font-size: 14px;&quot;&gt;&lt;span style=&quot;color: rgb(86, 156, 214);&quot;&gt;import&lt;/span&gt;&lt;span style=&quot;color: rgb(204, 204, 204);&quot;&gt; &lt;/span&gt;&lt;span style=&quot;color: rgb(206, 145, 120);&quot;&gt;&#39;package:flutter/material.dart&#39;&lt;/span&gt;&lt;span style=&quot;color: rgb(204, 204, 204);&quot;&gt;;&lt;/span&gt;&lt;/font&gt;&lt;/div&gt;&lt;font style=&quot;font-size: 14px;&quot;&gt;&lt;br&gt;&lt;/font&gt;&lt;div style=&quot;&quot;&gt;&lt;font style=&quot;font-size: 14px;&quot;&gt;&lt;span style=&quot;color: #569cd6;&quot;&gt;void&lt;/span&gt;&lt;span style=&quot;color: #cccccc;&quot;&gt; &lt;/span&gt;&lt;span style=&quot;color: #dcdcaa;&quot;&gt;main&lt;/span&gt;&lt;span style=&quot;color: #cccccc;&quot;&gt;() {&lt;/span&gt;&lt;/font&gt;&lt;/div&gt;&lt;div style=&quot;&quot;&gt;&lt;font style=&quot;font-size: 14px;&quot;&gt;&lt;span style=&quot;color: #cccccc;&quot;&gt;&amp;nbsp; &lt;/span&gt;&lt;span style=&quot;color: #dcdcaa;&quot;&gt;runApp&lt;/span&gt;&lt;span style=&quot;color: #cccccc;&quot;&gt;(&lt;/span&gt;&lt;span style=&quot;color: #569cd6;&quot;&gt;const&lt;/span&gt;&lt;span style=&quot;color: #cccccc;&quot;&gt; &lt;/span&gt;&lt;span style=&quot;color: #4ec9b0;&quot;&gt;MyApp&lt;/span&gt;&lt;span style=&quot;color: #cccccc;&quot;&gt;());&lt;/span&gt;&lt;/font&gt;&lt;/div&gt;&lt;div style=&quot;&quot;&gt;&lt;span style=&quot;color: #cccccc;&quot;&gt;&lt;font style=&quot;font-size: 14px;&quot;&gt;}&lt;/font&gt;&lt;/span&gt;&lt;/div&gt;&lt;font style=&quot;font-size: 14px;&quot;&gt;&lt;br&gt;&lt;/font&gt;&lt;div style=&quot;&quot;&gt;&lt;font style=&quot;font-size: 14px;&quot;&gt;&lt;span style=&quot;color: #569cd6;&quot;&gt;class&lt;/span&gt;&lt;span style=&quot;color: #cccccc;&quot;&gt; &lt;/span&gt;&lt;span style=&quot;color: #4ec9b0;&quot;&gt;MyApp&lt;/span&gt;&lt;span style=&quot;color: #cccccc;&quot;&gt; &lt;/span&gt;&lt;span style=&quot;color: #569cd6;&quot;&gt;extends&lt;/span&gt;&lt;span style=&quot;color: #cccccc;&quot;&gt; &lt;/span&gt;&lt;span style=&quot;color: #4ec9b0;&quot;&gt;StatelessWidget&lt;/span&gt;&lt;span style=&quot;color: #cccccc;&quot;&gt; {&lt;/span&gt;&lt;/font&gt;&lt;/div&gt;&lt;div style=&quot;&quot;&gt;&lt;font style=&quot;font-size: 14px;&quot;&gt;&lt;span style=&quot;color: #cccccc;&quot;&gt;&amp;nbsp; &lt;/span&gt;&lt;span style=&quot;color: #569cd6;&quot;&gt;const&lt;/span&gt;&lt;span style=&quot;color: #cccccc;&quot;&gt; &lt;/span&gt;&lt;span style=&quot;color: #4ec9b0;&quot;&gt;MyApp&lt;/span&gt;&lt;span style=&quot;color: #cccccc;&quot;&gt;({&lt;/span&gt;&lt;span style=&quot;color: #569cd6;&quot;&gt;super&lt;/span&gt;&lt;span style=&quot;color: #cccccc;&quot;&gt;.&lt;/span&gt;&lt;span style=&quot;color: #9cdcfe;&quot;&gt;key&lt;/span&gt;&lt;span style=&quot;color: #cccccc;&quot;&gt;});&lt;/span&gt;&lt;/font&gt;&lt;/div&gt;&lt;font style=&quot;font-size: 14px;&quot;&gt;&lt;br&gt;&lt;/font&gt;&lt;div style=&quot;&quot;&gt;&lt;font style=&quot;font-size: 14px;&quot;&gt;&lt;span style=&quot;color: #cccccc;&quot;&gt;&amp;nbsp; &lt;/span&gt;&lt;span style=&quot;color: #9cdcfe;&quot;&gt;@&lt;/span&gt;&lt;span style=&quot;color: #9cdcfe;&quot;&gt;override&lt;/span&gt;&lt;/font&gt;&lt;/div&gt;&lt;div style=&quot;&quot;&gt;&lt;font style=&quot;font-size: 14px;&quot;&gt;&lt;span style=&quot;color: #cccccc;&quot;&gt;&amp;nbsp; &lt;/span&gt;&lt;span style=&quot;color: #4ec9b0;&quot;&gt;Widget&lt;/span&gt;&lt;span style=&quot;color: #cccccc;&quot;&gt; &lt;/span&gt;&lt;span style=&quot;color: #dcdcaa;&quot;&gt;build&lt;/span&gt;&lt;span style=&quot;color: #cccccc;&quot;&gt;(&lt;/span&gt;&lt;span style=&quot;color: #4ec9b0;&quot;&gt;BuildContext&lt;/span&gt;&lt;span style=&quot;color: #cccccc;&quot;&gt; &lt;/span&gt;&lt;span style=&quot;color: #9cdcfe;&quot;&gt;context&lt;/span&gt;&lt;span style=&quot;color: #cccccc;&quot;&gt;) {&lt;/span&gt;&lt;/font&gt;&lt;/div&gt;&lt;div style=&quot;&quot;&gt;&lt;font style=&quot;font-size: 14px;&quot;&gt;&lt;span style=&quot;color: #cccccc;&quot;&gt;&amp;nbsp; &amp;nbsp; &lt;/span&gt;&lt;span style=&quot;color: #c586c0;&quot;&gt;return&lt;/span&gt;&lt;span style=&quot;color: #cccccc;&quot;&gt; &lt;/span&gt;&lt;span style=&quot;color: #4ec9b0;&quot;&gt;MaterialApp&lt;/span&gt;&lt;span style=&quot;color: #cccccc;&quot;&gt;(&lt;/span&gt;&lt;/font&gt;&lt;span style=&quot;font-size: 14px;&quot;&gt;);&lt;/span&gt;&lt;/div&gt;&lt;div style=&quot;&quot;&gt;&lt;span style=&quot;color: #cccccc;&quot;&gt;&lt;font style=&quot;font-size: 14px;&quot;&gt;&amp;nbsp; }&lt;/font&gt;&lt;/span&gt;&lt;/div&gt;&lt;div style=&quot;&quot;&gt;&lt;span style=&quot;color: #cccccc;&quot;&gt;&lt;font style=&quot;font-size: 14px;&quot;&gt;}&lt;/font&gt;&lt;/span&gt;&lt;/div&gt;&lt;br&gt;&lt;/div&gt;" id="EAbFVQhFKvrLfhzvPWd2-3">
          <mxCell style="text;whiteSpace=wrap;html=1;fontFamily=Helvetica;fontSize=12;fontColor=default;resizable=1;fillColor=none;strokeColor=none;imageAspect=0;comic=0;movable=1;rotatable=1;deletable=1;editable=1;locked=0;connectable=1;" parent="1" vertex="1">
            <mxGeometry x="-497" y="-255" width="306" height="370" as="geometry" />
          </mxCell>
        </UserObject>
        <mxCell id="EAbFVQhFKvrLfhzvPWd2-4" value="" style="rounded=0;whiteSpace=wrap;html=1;align=left;verticalAlign=top;fontFamily=Helvetica;fontSize=12;fontColor=default;resizable=1;fillColor=none;gradientColor=none;movable=1;rotatable=1;deletable=1;editable=1;locked=0;connectable=1;strokeColor=#0000FF;" parent="1" vertex="1">
          <mxGeometry x="-417" y="19" width="120" height="20" as="geometry" />
        </mxCell>
        <mxCell id="EAbFVQhFKvrLfhzvPWd2-6" style="edgeStyle=orthogonalEdgeStyle;rounded=0;orthogonalLoop=1;jettySize=auto;html=1;entryX=0.003;entryY=0.046;entryDx=0;entryDy=0;entryPerimeter=0;fontFamily=Helvetica;fontSize=12;fontColor=default;resizable=1;movable=1;rotatable=1;deletable=1;editable=1;locked=0;connectable=1;" parent="1" source="EAbFVQhFKvrLfhzvPWd2-4" target="EAbFVQhFKvrLfhzvPWd2-1" edge="1">
          <mxGeometry relative="1" as="geometry" />
        </mxCell>
        <mxCell id="vlyCdSwVU0Om-vvzbSEn-2" value="&lt;font style=&quot;&quot;&gt;&lt;font style=&quot;font-size: 15px; color: rgb(76, 0, 153);&quot;&gt;Scaffold&lt;/font&gt;&lt;br&gt;&lt;div style=&quot;&quot;&gt;&lt;br&gt;&lt;/div&gt;&lt;div style=&quot;&quot;&gt;&lt;font color=&quot;#009900&quot;&gt;&lt;span style=&quot;font-size: 15px;&quot;&gt;&amp;nbsp;├── appBar (opcional)&lt;/span&gt;&lt;/font&gt;&lt;/div&gt;&lt;div style=&quot;&quot;&gt;&lt;font color=&quot;#009900&quot;&gt;&lt;span style=&quot;font-size: 15px;&quot;&gt;&amp;nbsp;├── body&lt;/span&gt;&lt;/font&gt;&lt;/div&gt;&lt;div style=&quot;&quot;&gt;&lt;font color=&quot;#009900&quot;&gt;&lt;span style=&quot;font-size: 15px;&quot;&gt;&amp;nbsp;├── floatingActionButton (opcional)&lt;/span&gt;&lt;/font&gt;&lt;/div&gt;&lt;div style=&quot;&quot;&gt;&lt;font color=&quot;#009900&quot;&gt;&lt;span style=&quot;font-size: 15px;&quot;&gt;&amp;nbsp;├── drawer (opcional)&lt;/span&gt;&lt;/font&gt;&lt;/div&gt;&lt;div style=&quot;&quot;&gt;&lt;font color=&quot;#009900&quot;&gt;&lt;span style=&quot;font-size: 15px;&quot;&gt;&amp;nbsp;├── bottomNavigationBar (opcional)&lt;/span&gt;&lt;/font&gt;&lt;/div&gt;&lt;div style=&quot;&quot;&gt;&lt;font color=&quot;#009900&quot;&gt;&lt;span style=&quot;font-size: 15px;&quot;&gt;&amp;nbsp;├── bottomSheet (opcional)&lt;/span&gt;&lt;/font&gt;&lt;/div&gt;&lt;div style=&quot;&quot;&gt;&lt;font color=&quot;#009900&quot;&gt;&lt;span style=&quot;font-size: 15px;&quot;&gt;&amp;nbsp;├── persistentFooterButtons (opcional)&lt;/span&gt;&lt;/font&gt;&lt;/div&gt;&lt;div style=&quot;&quot;&gt;&lt;font color=&quot;#009900&quot;&gt;&lt;span style=&quot;font-size: 15px;&quot;&gt;&amp;nbsp;├── backgroundColor (opcional)&lt;/span&gt;&lt;/font&gt;&lt;/div&gt;&lt;div style=&quot;&quot;&gt;&lt;font color=&quot;#009900&quot;&gt;&lt;span style=&quot;font-size: 15px;&quot;&gt;&amp;nbsp;├── resizeToAvoidBottomInset (opcional)&lt;/span&gt;&lt;/font&gt;&lt;/div&gt;&lt;div style=&quot;&quot;&gt;&lt;font color=&quot;#009900&quot;&gt;&lt;span style=&quot;font-size: 15px;&quot;&gt;&amp;nbsp;├── extendBody (opcional)&lt;/span&gt;&lt;/font&gt;&lt;/div&gt;&lt;div style=&quot;&quot;&gt;&lt;font color=&quot;#009900&quot;&gt;&lt;span style=&quot;font-size: 15px;&quot;&gt;&amp;nbsp;├── extendBodyBehindAppBar (opcional)&lt;/span&gt;&lt;/font&gt;&lt;/div&gt;&lt;div style=&quot;&quot;&gt;&lt;font color=&quot;#009900&quot;&gt;&lt;span style=&quot;font-size: 15px;&quot;&gt;&amp;nbsp;├── primary (opcional)&lt;/span&gt;&lt;/font&gt;&lt;/div&gt;&lt;div style=&quot;&quot;&gt;&lt;font color=&quot;#009900&quot;&gt;&lt;span style=&quot;font-size: 15px;&quot;&gt;&amp;nbsp;├── drawerScrimColor (opcional)&lt;/span&gt;&lt;/font&gt;&lt;/div&gt;&lt;div style=&quot;&quot;&gt;&lt;font color=&quot;#009900&quot;&gt;&lt;span style=&quot;font-size: 15px;&quot;&gt;&amp;nbsp;├── drawerEdgeDragWidth (opcional)&lt;/span&gt;&lt;/font&gt;&lt;/div&gt;&lt;div style=&quot;&quot;&gt;&lt;font color=&quot;#009900&quot;&gt;&lt;span style=&quot;font-size: 15px;&quot;&gt;&amp;nbsp;├── endDrawer (opcional)&lt;/span&gt;&lt;/font&gt;&lt;/div&gt;&lt;div style=&quot;&quot;&gt;&lt;font color=&quot;#009900&quot;&gt;&lt;span style=&quot;font-size: 15px;&quot;&gt;&amp;nbsp;├── endDrawerEnableOpenDragGesture (opcional)&lt;/span&gt;&lt;/font&gt;&lt;/div&gt;&lt;div style=&quot;&quot;&gt;&lt;font color=&quot;#009900&quot;&gt;&lt;span style=&quot;font-size: 15px;&quot;&gt;&amp;nbsp;└── scaffoldMessenger (opcional)&lt;/span&gt;&lt;/font&gt;&lt;/div&gt;&lt;div style=&quot;font-size: 15px;&quot;&gt;&lt;br&gt;&lt;/div&gt;&lt;/font&gt;" style="text;whiteSpace=wrap;html=1;movable=1;resizable=1;rotatable=1;deletable=1;editable=1;locked=0;connectable=1;strokeColor=none;strokeWidth=3;dashed=1;dashPattern=12 12;" parent="1" vertex="1">
          <mxGeometry x="303" y="-428" width="356" height="344" as="geometry" />
        </mxCell>
        <mxCell id="vlyCdSwVU0Om-vvzbSEn-3" style="edgeStyle=orthogonalEdgeStyle;rounded=0;orthogonalLoop=1;jettySize=auto;html=1;exitX=0.25;exitY=0;exitDx=0;exitDy=0;entryX=-0.001;entryY=0.041;entryDx=0;entryDy=0;entryPerimeter=0;shape=link;movable=1;resizable=1;rotatable=1;deletable=1;editable=1;locked=0;connectable=1;" parent="1" source="EAbFVQhFKvrLfhzvPWd2-1" target="vlyCdSwVU0Om-vvzbSEn-2" edge="1">
          <mxGeometry relative="1" as="geometry" />
        </mxCell>
        <mxCell id="vlyCdSwVU0Om-vvzbSEn-4" value="&lt;font style=&quot;&quot;&gt;&lt;div style=&quot;&quot;&gt;&lt;span style=&quot;color: light-dark(rgb(0, 0, 0), rgb(76, 0, 153)); font-size: 15px; background-color: transparent;&quot;&gt;AppBar&lt;/span&gt;&lt;/div&gt;&lt;/font&gt;&lt;div&gt;&amp;nbsp;&lt;font style=&quot;color: light-dark(rgb(0, 0, 0), rgb(0, 153, 0));&quot;&gt;├── leading (opcional)&lt;/font&gt;&lt;/div&gt;&lt;div&gt;&lt;font style=&quot;color: light-dark(rgb(0, 0, 0), rgb(0, 153, 0));&quot;&gt;&amp;nbsp;├── automaticallyImplyLeading (opcional)&lt;/font&gt;&lt;/div&gt;&lt;div&gt;&lt;font style=&quot;color: light-dark(rgb(0, 0, 0), rgb(0, 153, 0));&quot;&gt;&amp;nbsp;├── title (opcional)&lt;/font&gt;&lt;/div&gt;&lt;div&gt;&lt;font style=&quot;color: light-dark(rgb(0, 0, 0), rgb(0, 153, 0));&quot;&gt;&amp;nbsp;├── actions (opcional)&lt;/font&gt;&lt;/div&gt;&lt;div&gt;&lt;font style=&quot;color: light-dark(rgb(0, 0, 0), rgb(0, 153, 0));&quot;&gt;&amp;nbsp;├── flexibleSpace (opcional)&lt;/font&gt;&lt;/div&gt;&lt;div&gt;&lt;font style=&quot;color: light-dark(rgb(0, 0, 0), rgb(0, 153, 0));&quot;&gt;&amp;nbsp;├── bottom (opcional)&lt;/font&gt;&lt;/div&gt;&lt;div&gt;&lt;font style=&quot;color: light-dark(rgb(0, 0, 0), rgb(0, 153, 0));&quot;&gt;&amp;nbsp;├── elevation (opcional)&lt;/font&gt;&lt;/div&gt;&lt;div&gt;&lt;font style=&quot;color: light-dark(rgb(0, 0, 0), rgb(0, 153, 0));&quot;&gt;&amp;nbsp;├── shadowColor (opcional)&lt;/font&gt;&lt;/div&gt;&lt;div&gt;&lt;font style=&quot;color: light-dark(rgb(0, 0, 0), rgb(0, 153, 0));&quot;&gt;&amp;nbsp;├── shape (opcional)&lt;/font&gt;&lt;/div&gt;&lt;div&gt;&lt;font style=&quot;color: light-dark(rgb(0, 0, 0), rgb(0, 153, 0));&quot;&gt;&amp;nbsp;├── backgroundColor (opcional)&lt;/font&gt;&lt;/div&gt;&lt;div&gt;&lt;font style=&quot;color: light-dark(rgb(0, 0, 0), rgb(0, 153, 0));&quot;&gt;&amp;nbsp;├── foregroundColor (opcional)&lt;/font&gt;&lt;/div&gt;&lt;div&gt;&lt;font style=&quot;color: light-dark(rgb(0, 0, 0), rgb(0, 153, 0));&quot;&gt;&amp;nbsp;├── iconTheme (opcional)&lt;/font&gt;&lt;/div&gt;&lt;div&gt;&lt;font style=&quot;color: light-dark(rgb(0, 0, 0), rgb(0, 153, 0));&quot;&gt;&amp;nbsp;├── actionsIconTheme (opcional)&lt;/font&gt;&lt;/div&gt;&lt;div&gt;&lt;font style=&quot;color: light-dark(rgb(0, 0, 0), rgb(0, 153, 0));&quot;&gt;&amp;nbsp;├── centerTitle (opcional)&lt;/font&gt;&lt;/div&gt;&lt;div&gt;&lt;font style=&quot;color: light-dark(rgb(0, 0, 0), rgb(0, 153, 0));&quot;&gt;&amp;nbsp;├── toolbarHeight (opcional)&lt;/font&gt;&lt;/div&gt;&lt;div&gt;&lt;font style=&quot;color: light-dark(rgb(0, 0, 0), rgb(0, 153, 0));&quot;&gt;&amp;nbsp;├── toolbarOpacity (opcional)&lt;/font&gt;&lt;/div&gt;&lt;div&gt;&lt;font style=&quot;color: light-dark(rgb(0, 0, 0), rgb(0, 153, 0));&quot;&gt;&amp;nbsp;├── bottomOpacity (opcional)&lt;/font&gt;&lt;/div&gt;&lt;div&gt;&lt;font style=&quot;color: light-dark(rgb(0, 0, 0), rgb(0, 153, 0));&quot;&gt;&amp;nbsp;├── excludeHeaderSemantics (opcional)&lt;/font&gt;&lt;/div&gt;&lt;div&gt;&lt;font style=&quot;color: light-dark(rgb(0, 0, 0), rgb(0, 153, 0));&quot;&gt;&amp;nbsp;├── titleSpacing (opcional)&lt;/font&gt;&lt;/div&gt;&lt;div&gt;&lt;font style=&quot;color: light-dark(rgb(0, 0, 0), rgb(0, 153, 0));&quot;&gt;&amp;nbsp;├── titleTextStyle (opcional)&lt;/font&gt;&lt;/div&gt;&lt;div&gt;&lt;font style=&quot;color: light-dark(rgb(0, 0, 0), rgb(0, 153, 0));&quot;&gt;&amp;nbsp;├── systemOverlayStyle (opcional)&lt;/font&gt;&lt;/div&gt;&lt;div&gt;&lt;font style=&quot;color: light-dark(rgb(0, 0, 0), rgb(0, 153, 0));&quot;&gt;&amp;nbsp;└── scrolledUnderElevation (opcional)&lt;/font&gt;&lt;/div&gt;&lt;div&gt;&lt;br&gt;&lt;/div&gt;" style="text;whiteSpace=wrap;html=1;movable=1;resizable=1;rotatable=1;deletable=1;editable=1;locked=0;connectable=1;strokeColor=none;strokeWidth=3;dashed=1;dashPattern=12 12;" parent="1" vertex="1">
          <mxGeometry x="1027" y="-625" width="260" height="343" as="geometry" />
        </mxCell>
        <mxCell id="vlyCdSwVU0Om-vvzbSEn-6" style="edgeStyle=orthogonalEdgeStyle;rounded=0;orthogonalLoop=1;jettySize=auto;html=1;exitX=0.475;exitY=0.137;exitDx=0;exitDy=0;entryX=-0.001;entryY=0.044;entryDx=0;entryDy=0;entryPerimeter=0;exitPerimeter=0;shape=link;movable=1;resizable=1;rotatable=1;deletable=1;editable=1;locked=0;connectable=1;" parent="1" source="vlyCdSwVU0Om-vvzbSEn-2" target="vlyCdSwVU0Om-vvzbSEn-4" edge="1">
          <mxGeometry relative="1" as="geometry" />
        </mxCell>
        <mxCell id="vlyCdSwVU0Om-vvzbSEn-21" style="edgeStyle=orthogonalEdgeStyle;rounded=0;orthogonalLoop=1;jettySize=auto;html=1;exitX=0.418;exitY=0.109;exitDx=0;exitDy=0;entryX=0;entryY=0.5;entryDx=0;entryDy=0;exitPerimeter=0;strokeColor=#CCCC00;strokeWidth=5;" parent="1" source="vlyCdSwVU0Om-vvzbSEn-7" target="vlyCdSwVU0Om-vvzbSEn-20" edge="1">
          <mxGeometry relative="1" as="geometry" />
        </mxCell>
        <mxCell id="vlyCdSwVU0Om-vvzbSEn-7" value="&lt;font style=&quot;&quot;&gt;&lt;font style=&quot;font-size: 15px; color: light-dark(rgb(76, 0, 153), rgb(76, 0, 153));&quot;&gt;Body&lt;/font&gt;&lt;/font&gt;&lt;div&gt;&lt;font style=&quot;color: rgb(0, 153, 0); font-size: 15px;&quot;&gt;&amp;nbsp;├── Column&lt;/font&gt;&lt;/div&gt;&lt;div&gt;&lt;font style=&quot;color: rgb(0, 153, 0); font-size: 15px;&quot;&gt;&amp;nbsp;├── Row&lt;/font&gt;&lt;/div&gt;&lt;div&gt;&lt;font style=&quot;color: rgb(0, 153, 0); font-size: 15px;&quot;&gt;&amp;nbsp;├── Stack&lt;/font&gt;&lt;/div&gt;&lt;div&gt;&lt;font style=&quot;color: rgb(0, 153, 0); font-size: 15px;&quot;&gt;&amp;nbsp;├── ListView&lt;/font&gt;&lt;/div&gt;&lt;div&gt;&lt;font style=&quot;color: rgb(0, 153, 0); font-size: 15px;&quot;&gt;&amp;nbsp;├── GridView&lt;/font&gt;&lt;/div&gt;&lt;div&gt;&lt;font style=&quot;color: rgb(0, 153, 0); font-size: 15px;&quot;&gt;&amp;nbsp;├── SingleChildScrollView&lt;/font&gt;&lt;/div&gt;&lt;div&gt;&lt;font style=&quot;color: rgb(0, 153, 0); font-size: 15px;&quot;&gt;&amp;nbsp;├── PageView&lt;/font&gt;&lt;/div&gt;&lt;div&gt;&lt;font style=&quot;color: rgb(0, 153, 0); font-size: 15px;&quot;&gt;&amp;nbsp;├── Center&lt;/font&gt;&lt;/div&gt;&lt;div&gt;&lt;font style=&quot;color: rgb(0, 153, 0); font-size: 15px;&quot;&gt;&amp;nbsp;├── Align&lt;/font&gt;&lt;/div&gt;&lt;div&gt;&lt;font style=&quot;color: rgb(0, 153, 0); font-size: 15px;&quot;&gt;&amp;nbsp;├── Padding&lt;/font&gt;&lt;/div&gt;&lt;div&gt;&lt;font style=&quot;color: rgb(0, 153, 0); font-size: 15px;&quot;&gt;&amp;nbsp;├── Expanded&lt;/font&gt;&lt;/div&gt;&lt;div&gt;&lt;font style=&quot;color: rgb(0, 153, 0); font-size: 15px;&quot;&gt;&amp;nbsp;├── Flexible&lt;/font&gt;&lt;/div&gt;&lt;div&gt;&lt;font style=&quot;color: rgb(0, 153, 0); font-size: 15px;&quot;&gt;&amp;nbsp;├── Container&lt;/font&gt;&lt;/div&gt;&lt;div&gt;&lt;font style=&quot;color: rgb(0, 153, 0); font-size: 15px;&quot;&gt;&amp;nbsp;├── SizedBox&lt;/font&gt;&lt;/div&gt;&lt;div&gt;&lt;font style=&quot;color: rgb(0, 153, 0); font-size: 15px;&quot;&gt;&amp;nbsp;├── Image&lt;/font&gt;&lt;/div&gt;&lt;div&gt;&lt;font style=&quot;color: rgb(0, 153, 0); font-size: 15px;&quot;&gt;&amp;nbsp;├── Icon&lt;/font&gt;&lt;/div&gt;&lt;div&gt;&lt;font style=&quot;color: rgb(0, 153, 0); font-size: 15px;&quot;&gt;&amp;nbsp;├── Text&lt;/font&gt;&lt;/div&gt;&lt;div&gt;&lt;font style=&quot;color: rgb(0, 153, 0); font-size: 15px;&quot;&gt;&amp;nbsp;├── ElevatedButton&lt;/font&gt;&lt;/div&gt;&lt;div&gt;&lt;font style=&quot;color: rgb(0, 153, 0); font-size: 15px;&quot;&gt;&amp;nbsp;├── TextButton&lt;/font&gt;&lt;/div&gt;&lt;div&gt;&lt;font style=&quot;color: rgb(0, 153, 0); font-size: 15px;&quot;&gt;&amp;nbsp;├── GestureDetector&lt;/font&gt;&lt;/div&gt;&lt;div&gt;&lt;font style=&quot;color: rgb(0, 153, 0); font-size: 15px;&quot;&gt;&amp;nbsp;├── InkWell&lt;/font&gt;&lt;/div&gt;&lt;div&gt;&lt;font style=&quot;color: rgb(0, 153, 0); font-size: 15px;&quot;&gt;&amp;nbsp;├── Card&lt;/font&gt;&lt;/div&gt;&lt;div&gt;&lt;font style=&quot;color: rgb(0, 153, 0); font-size: 15px;&quot;&gt;&amp;nbsp;├── Divider&lt;/font&gt;&lt;/div&gt;&lt;div&gt;&lt;font style=&quot;color: rgb(0, 153, 0); font-size: 15px;&quot;&gt;&amp;nbsp;├── Spacer&lt;/font&gt;&lt;/div&gt;&lt;div&gt;&lt;font style=&quot;color: rgb(0, 153, 0); font-size: 15px;&quot;&gt;&amp;nbsp;└── CustomScrollView&lt;/font&gt;&lt;/div&gt;" style="text;whiteSpace=wrap;html=1;movable=1;resizable=1;rotatable=1;deletable=1;editable=1;locked=0;connectable=1;strokeColor=none;strokeWidth=3;dashed=1;dashPattern=12 12;" parent="1" vertex="1">
          <mxGeometry x="812" y="-223" width="201" height="478" as="geometry" />
        </mxCell>
        <mxCell id="vlyCdSwVU0Om-vvzbSEn-9" style="edgeStyle=orthogonalEdgeStyle;rounded=0;orthogonalLoop=1;jettySize=auto;html=1;exitX=0.239;exitY=0.192;exitDx=0;exitDy=0;entryX=0.002;entryY=0.045;entryDx=0;entryDy=0;entryPerimeter=0;exitPerimeter=0;shape=link;movable=1;resizable=1;rotatable=1;deletable=1;editable=1;locked=0;connectable=1;" parent="1" source="vlyCdSwVU0Om-vvzbSEn-2" target="vlyCdSwVU0Om-vvzbSEn-7" edge="1">
          <mxGeometry relative="1" as="geometry" />
        </mxCell>
        <mxCell id="vlyCdSwVU0Om-vvzbSEn-19" value="" style="shape=image;verticalLabelPosition=bottom;labelBackgroundColor=default;verticalAlign=top;aspect=fixed;imageAspect=0;image=data:image/png,iVBORw0KGgoAAAANSUhEUgAAAgUAAAIOCAYAAAAoW37OAAAAAXNSR0IArs4c6QAAAARnQU1BAACxjwv8YQUAAAAJcEhZcwAADsMAAA7DAcdvqGQAAAv7SURBVHhe7duxi6RnHcDx7wqp5EBmUiUE7oqg1TW7QSEgGOFKI0EtQv6AeIEQ0llciqSwEwkkucbusDApTMpAsmClONOkUq64g5BUN0E4rCzOYvfH7s5pvKiIO/f5wHLv+z7vzBR3t+/3fZ539haLxb0AgIfe17YPAAAPJ1EAAJQoAACGKAAAShQAAEMUAABV7Z3+SuJmszk7CgDshOVyuX3oPvdFwcHB2RMAgPNrtTr680GiwPIBAFCiAAAYogAAKFEAAAxRAACUKAAAhigAAEoUAABDFAAAJQoAgCEKAIASBQDAEAUAQIkCAGCIAgCgRAEAMEQBnDfP1+Gq3n1te+DfcPxeq62fa9vnAQ8FUQDnzLXn6s7tunR5e+Tf98df1MHB0c/7t+vZ97bPAB4GogDOmcsX65Mf1a2L9c7zJ8evvVeH1+vdueM/dWF/57DevX4yK3B4/WRs2xufVMt64Xj/hetnZxHmM6+9V4eH//r9gPNDFMB58lpdul1vVO+v6lvfPTt84aDuHN/137p4donh0kF9fFAHv6gOzgbFadcu190/142OPu+Vg3r/1CzCU8+dnHuh+uVBfe/FU28AnFuiAM6Ra5fr1idH2zd+V33z5I6+qtv1018fbb6/OrvEcHd1FBP9uj6+fTYonnr1ZCbg2WX9ai7yrx/FwBvHu7funLymqs1xPAA7QRTAOXL5Yl36wfEF/NW6cKGePnXHf3f7on3Knc+3j5w4/UzBwWG9cuphw3eOlwhWq6NZg9O+7POA80cUwDnxwvW6dPdoun4u4L9cbU3nP3qyfenUdtWjj51sP7Y8PbLl9bpVPfb80Wc+dbxEMJ8H7C5RAOfE0988tdZ/7Mbn1cVTXyE8tX354slSQ9WFWWp4vr51of70u5OxM16rS9Xnx8sQpz27NVMA7BZRAOfBP7uQH9/VP3P89P/d2/XM8VT/o6v68esnp97aHC0LrF6tOx+cPHvQ1jMFqx8cLSe8Ud14sW5dOH7dqj754Ow3E4DdsrdYLO7Nzmaz6cCdAJxL196rZ+78428CvHNYjx6ejQTg4bA6XvZbLr9s3fCImQIAoMwUAMBuM1MAAHxlogAAKFEAAAxRAACUKAAAhigAAEoUAABDFAAAJQoAgCEKAIASBQDAEAUAQIkCAGCIAgCgRAEAMEQBAFCiAAAYogAAKFEAAAxRAACUKAAAhigAAEoUAABDFAAAJQoAgCEKAIASBQDAEAUAQIkCAGCIAgCgqr3FYnFvdjabzdlRAGAnLJfL7UP3uS8KHuRFAMD58aDXd8sHAECJAgBgiAIAoEQBADA8aAiw4774+m+2D7FjFn/9yfahMx70+v5AUfDkFx9W9YeXP90eYsd8+80n+k4H24fZMb9v1c/e8ve8637+0qqqPzzxl9rf3x5mV6zXffvTb1R1c3Fle7S+5Pq+7YGjYL/93n75tz3uH9bO+my97uqbP+yR9trvye1hdsS6m/2te115a891Yoet1/XhS0e/3t9+4iNRsMvW665++v3Wrf/jKPBMAQBQogAAGKIAAChRAAAMUQAAlCgAAIYoAABKFAAAQxQAACUKAIAhCgCAEgUAwBAFAECJAgBgiAIAoEQBADBEAQBQogAAGKIAAChRAAAMUQAAlCgAAIYoAABKFAAAQxQAACUKAIAhCgCAEgUAwBAFAECJAgBgiAIAoEQBADBEAQBQogAAGKIAAChRAAAMUQAAlCgAAIYoAABKFAAAQxQAACUKAIAhCgCAEgUAwBAFAECJAgBgiAIAoEQBADBEAQBQogAAGKIAAChRAAAMUQAAlCgAAIYoAABKFAAAQxQAACUKAIAhCgCAEgUAwBAFAECJAgBgiAIAoEQBADBEAQBQogAAGKIAAChRAAAMUQAAlCgAAIYoAABKFAAAQxQAACUKAIAhCgCAEgUAwBAFAECJAgBgiAIAoEQBADBEAQBQogAAGKIAAChRAAAMUQAAlCgAAIYoAABKFAAAQxQAACUKAIAhCgCAEgUAwBAFAECJAgBgiAIAoEQBADBEAQBQogAAGKIAAChRAAAMUQAAlCgAAIYoAABKFAAAQxQAACUKAIAhCgCAEgUAwBAFAECJAgBgiAIAoEQBADBEAQBQogAAGKIAAChRAAAMUQAAlCgAAIYoAABKFAAAQxQAACUKAIAhCgCAEgUAwBAFAECJAgBgiAIAoEQBADBEAQBQogAAGKIAAChRAAAMUQAAlCgAAIYoAABKFAAAQxQAACUKAIAhCgCAEgUAwBAFAECJAgBgiAIAoEQBADBEAQBQogAAGKIAAChRAAAMUQAAlCgAAIYoAABKFAAAQxQAACUKAIAhCgCAEgUAwBAFAECJAgBgiAIAoEQBADBEAQBQogAAGKIAAChRAAAMUQAAlCgAAIYoAABKFAAAQxQAACUKAIAhCgCAEgUAwBAFAECJAgBgiAIAoEQBADBEAQBQogAAGKIAAChRAAAMUQAAlCgAAIYoAABKFAAAQxQAACUKAIAhCgCAEgUAwBAFAECJAgBgiAIAoEQBADBEAQBQogAAGKIAAChRAAAMUQAAlCgAAIYoAABKFAAAQxQAACUKAIAhCgCAEgUAwBAFAECJAgBgiAIAoEQBADBEAQBQogAAGKIAAChRAAAMUQAAlCgAAIYoAABKFAAAQxQAACUKAIAhCgCAEgUAwBAFAECJAgBgiAIAoEQBADBEAQBQogAAGKIAAChRAAAMUQAAlCgAAIYoAABKFAAAQxQAACUKAIAhCgCAEgUAwBAFAECJAgBgiAIAoKq9xWJxb3Y2m03L5fLsGdWTX3zYfvu9/fJve3x/f3uYHfHZet3VN3/YI+2135Pbw+yIdTf7W/e68tZe/jvvrvW6Pnzp6Nf72098tD3Mjrn66fdbt+7m4sr2UH3J9X3bV44CdttEAbttooDdNlHAw+F/HgUAwP+n/0YUeKYAAKivMlMAAPx/+09nCh4oCgCA8+tBr++WDwCAEgUAwBAFAECJAgBgiAIAoEQBADBEAQBQogAAGKIAAChRAAAMUQAAlCgAAIYoAABKFAAAQxQAACUKAIAhCgCAEgUAwBAFAECJAgBgiAIAoEQBADBEAQBQogAAGKIAAChRAAAMUQAAlCgAAIYoAABKFAAAQxQAACUKAIAhCgCAEgUAwBAFAECJAgBgiAIAoEQBADBEAQBQogAAGKIAAChRAAAMUQAAlCgAAIYoAABKFAAAQxQAACUKAIAhCgCAEgUAwBAFAECJAgBgiAIAoEQBADBEAQBQogAAGKIAAChRAAAMUQAAlCgAAIYoAABKFAAAQxQAACUKAIAhCgCAEgUAwBAFAECJAgBgiAIAoEQBADBEAQBQogAAGKIAAChRAAAMUQAAlCgAAIYoAABKFAAAQxQAACUKAIAhCgCAEgUAwBAFAECJAgBgiAIAoEQBADBEAQBQogAAGKIAAChRAAAMUQAAlCgAAIYoAABKFAAAQxQAACUKAIAhCgCAEgUAwBAFAECJAgBgiAIAoEQBADBEAQBQogAAGKIAAChRAAAMUQAAlCgAAIYoAABKFAAAQxQAACUKAIAhCgCAEgUAwBAFAECJAgBgiAIAoEQBADBEAQBQogAAGKIAAChRAAAMUQAAlCgAAIYoAABKFAAAQxQAACUKAIAhCgCAEgUAwBAFAECJAgBgiAIAoEQBADBEAQBQogAAGKIAAChRAAAMUQAAlCgAAIYoAABKFAAAQxQAACUKAIAhCgCAEgUAwBAFAECJAgBgiAIAoEQBADBEAQBQogAAGKIAAChRAAAMUQAAlCgAAIYoAABKFAAAQxQAACUKAIAhCgCAEgUAwBAFAECJAgBgiAIAoEQBADBEAQBQogAAGKIAAChRAAAMUQAAlCgAAIYoAABKFAAAQxQAACUKAIAhCgCAEgUAwBAFAECJAgBgiAIAoEQBADBEAQBQogAAGKIAAChRAAAMUQAAlCgAAIYoAABKFAAAQxQAACUKAIAhCgCAEgUAwBAFAECJAgBg7C0Wi3uzs9lszo4CADthuVxuH7rPmSgAAB5elg8AgBIFAMAQBQBAiQIAYIgCAKBEAQAwRAEAUNXfAUgIbpcq/KL9AAAAAElFTkSuQmCC;" parent="1" vertex="1">
          <mxGeometry x="1229" y="-185" width="517" height="526" as="geometry" />
        </mxCell>
        <mxCell id="vlyCdSwVU0Om-vvzbSEn-20" value="" style="rounded=0;whiteSpace=wrap;html=1;fillColor=none;strokeColor=#CCCC00;strokeWidth=6;" parent="1" vertex="1">
          <mxGeometry x="1220" y="-135" width="542" height="277" as="geometry" />
        </mxCell>
        <mxCell id="vlyCdSwVU0Om-vvzbSEn-23" style="edgeStyle=orthogonalEdgeStyle;rounded=0;orthogonalLoop=1;jettySize=auto;html=1;exitX=0.5;exitY=0.069;exitDx=0;exitDy=0;entryX=0.14;entryY=0.495;entryDx=0;entryDy=0;entryPerimeter=0;strokeWidth=5;strokeColor=#FF0000;exitPerimeter=0;" parent="1" source="vlyCdSwVU0Om-vvzbSEn-7" target="vlyCdSwVU0Om-vvzbSEn-20" edge="1">
          <mxGeometry relative="1" as="geometry">
            <Array as="points">
              <mxPoint x="935" y="-190" />
              <mxPoint x="1296" y="-190" />
            </Array>
          </mxGeometry>
        </mxCell>
      </root>
    </mxGraphModel>
  </diagram>
</mxfile>
